<?xml version="1.0" encoding="UTF-8"?>
<svg id="Picture_mark" xmlns="http://www.w3.org/2000/svg" version="1.1" xmlns:xlink="http://www.w3.org/1999/xlink" viewBox="0 0 1024 1024">
  <!-- Generator: Adobe Illustrator 29.3.0, SVG Export Plug-In . SVG Version: 2.1.0 Build 146)  -->
  <defs>
    <style>
      .st0 {
        fill: url(#linear-gradient2);
      }

      .st1 {
        fill: url(#linear-gradient1);
      }

      .st2 {
        fill: url(#radial-gradient);
      }

      .st3 {
        display: none;
        fill: #fff;
        stroke: #000;
        stroke-miterlimit: 10;
      }

      .st4 {
        fill: url(#linear-gradient);
        filter: url(#drop-shadow-1);
      }

      .st5 {
        fill: #e6e7e8;
      }
    </style>
    <radialGradient id="radial-gradient" cx="530.7" cy="504" fx="530.7" fy="504" r="442.5" gradientUnits="userSpaceOnUse">
      <stop offset="0" stop-color="#365e86"/>
      <stop offset="0" stop-color="#345c85"/>
      <stop offset=".4" stop-color="#174574"/>
      <stop offset=".8" stop-color="#063769"/>
      <stop offset="1" stop-color="#036"/>
    </radialGradient>
    <linearGradient id="linear-gradient" x1="703.6" y1="347" x2="125.1" y2="861.7" gradientUnits="userSpaceOnUse">
      <stop offset="0" stop-color="#365e86"/>
      <stop offset="0" stop-color="#345c85"/>
      <stop offset=".4" stop-color="#174574"/>
      <stop offset=".8" stop-color="#063769"/>
      <stop offset="1" stop-color="#036"/>
    </linearGradient>
    <filter id="drop-shadow-1" x="241" y="249" width="560" height="548" filterUnits="userSpaceOnUse">
      <feOffset dx="7" dy="7"/>
      <feGaussianBlur result="blur" stdDeviation="5"/>
      <feFlood flood-color="#000" flood-opacity=".8"/>
      <feComposite in2="blur" operator="in"/>
      <feComposite in="SourceGraphic"/>
    </filter>
    <linearGradient id="linear-gradient1" x1="646.3" y1="389" x2="460" y2="552.1" gradientUnits="userSpaceOnUse">
      <stop offset="0" stop-color="#365e86"/>
      <stop offset=".3" stop-color="#2e5881"/>
      <stop offset=".6" stop-color="#1a4875"/>
      <stop offset="1" stop-color="#036"/>
    </linearGradient>
    <linearGradient id="linear-gradient2" x1="640.3" y1="382.2" x2="454" y2="545.2" xlink:href="#linear-gradient1"/>
  </defs>
  <rect id="Teal" class="st2" width="1024" height="1024"/>
  <g>
    <path class="st4" d="M732.4,261.1c-12.1-2.4-29.7-4.9-44.6-3.3-53.1,3-60.8,32.1-60.8,32.1,0,0-23.1,90.4-55.5,122.8l-87.4,87.4-.2-.2-73.1,72.7s-33.3,39.2-82.2,31.4c-39.4-1.2-66.8,48.3-78.9,75.9l5.8,10.5,54.6-31.4s42.6,20.3,39.7,67.6c-11.4,6.8-42.9,25.3-59,34.8l5.5,9.2c12,2.3,29.2,4.7,43.8,3.2,53.1-3,60.8-32.1,60.8-32.1,0,0,23.1-90.4,55.5-122.8,8.9-8.9,35.9-35.9,70.7-70.7l.2.2,89.8-89.3s33.3-39.2,82.2-31.4c39.2,1.2,66.6-47.8,78.8-75.5l-6.3-10.6-54,31s-42.6-20.3-39.7-67.6c11.4-6.9,43.3-25.5,59.3-34.9h0s-5-8.9-5-8.9Z"/>
    <path class="st5" d="M728.6,253.6c-12.1-2.4-29.7-4.9-44.6-3.3-53.1,3-60.8,32.1-60.8,32.1,0,0-23.1,90.4-55.5,122.8l-87.4,87.4-.2-.2-73.1,72.7s-33.3,39.2-82.2,31.4c-39.4-1.2-66.8,48.3-78.9,75.9l5.8,10.5,54.6-31.4s42.6,20.3,39.7,67.6c-11.4,6.8-42.9,25.3-59,34.8l5.5,9.2c12,2.3,29.2,4.7,43.8,3.2,53.1-3,60.8-32.1,60.8-32.1,0,0,23.1-90.4,55.5-122.8,8.9-8.9,35.9-35.9,70.7-70.7l.2.2,89.8-89.3s33.3-39.2,82.2-31.4c39.2,1.2,66.6-47.8,78.8-75.5l-6.3-10.6-54,31s-42.6-20.3-39.7-67.6c11.4-6.9,43.3-25.5,59.3-34.9h0s-5-8.9-5-8.9Z"/>
    <g>
      <path class="st1" d="M413.8,585.7l168.9-165.2c4.6-4.5,12.2-4.6,16.8,0h0c4.6,4.5,4.6,11.9,0,16.4l-168.9,165.2c-4.6,4.5-12.2,4.6-16.8,0h0c-4.6-4.5-4.6-11.9,0-16.4Z"/>
      <path class="st0" d="M613.8,390.1l5.3-5.2c4.6-4.5,12.2-4.6,16.8,0h0c4.6,4.5,4.6,11.9,0,16.4l-5.3,5.2c-4.6,4.5-12.2,4.6-16.8,0h0c-4.6-4.5-4.6-11.9,0-16.4Z"/>
    </g>
  </g>
  <rect class="st3" x="265.8" y="264" width="500.3" height="518"/>
</svg>