<?xml version="1.0" encoding="UTF-8"?>
<svg xmlns="http://www.w3.org/2000/svg" viewBox="0 0 52 52" >
    <path fill="currentColor" d="M12.9,38.6c0-5.4,4.4-9.7,9.7-9.7s9.7,4.4,9.7,9.7h-2.4c0-4-3.3-7.3-7.3-7.3s-7.3,3.3-7.3,7.3c0,0-2.4,0-2.4,0ZM22.7,27.7c-4,0-7.3-3.3-7.3-7.3s3.3-7.3,7.3-7.3,7.3,3.3,7.3,7.3-3.3,7.3-7.3,7.3ZM22.7,25.3c2.7,0,4.9-2.2,4.9-4.9s-2.2-4.9-4.9-4.9-4.9,2.2-4.9,4.9,2.2,4.9,4.9,4.9ZM32.8,29.8c3.4,1.5,5.7,4.9,5.7,8.9h-2.4c0-3-1.8-5.5-4.3-6.7,0,0,1-2.2,1-2.2ZM31.9,16c2.4,1,4.1,3.4,4.1,6.2s-2.7,6.4-6.1,6.7v-2.4c2.1-.3,3.7-2.1,3.7-4.2s-1-3.1-2.4-3.8l.7-2.4h0Z"/>
</svg>